<svg width="64" height="64" viewBox="0 0 64 64" fill="none" xmlns="http://www.w3.org/2000/svg">
<g clip-path="url(#clip0_215_2)">
<path fill-rule="evenodd" clip-rule="evenodd" d="M6.584 18.5839C6.76978 18.3977 6.99049 18.2499 7.23347 18.1491C7.47645 18.0482 7.73693 17.9963 8 17.9963C8.26307 17.9963 8.52356 18.0482 8.76654 18.1491C9.00952 18.2499 9.23022 18.3977 9.416 18.5839L32 41.1719L54.584 18.5839C54.77 18.398 54.9907 18.2505 55.2337 18.1498C55.4766 18.0492 55.737 17.9974 56 17.9974C56.263 17.9974 56.5234 18.0492 56.7663 18.1498C57.0093 18.2505 57.23 18.398 57.416 18.5839C57.602 18.7699 57.7495 18.9906 57.8501 19.2336C57.9507 19.4765 58.0025 19.7369 58.0025 19.9999C58.0025 20.2629 57.9507 20.5233 57.8501 20.7662C57.7495 21.0092 57.602 21.23 57.416 21.4159L33.416 45.4159C33.2302 45.6022 33.0095 45.7499 32.7665 45.8508C32.5236 45.9516 32.2631 46.0035 32 46.0035C31.7369 46.0035 31.4764 45.9516 31.2335 45.8508C30.9905 45.7499 30.7698 45.6022 30.584 45.4159L6.584 21.4159C6.39775 21.2301 6.24998 21.0094 6.14915 20.7664C6.04833 20.5235 5.99643 20.263 5.99643 19.9999C5.99643 19.7368 6.04833 19.4764 6.14915 19.2334C6.24998 18.9904 6.39775 18.7697 6.584 18.5839Z" fill="#E9DFFF"/>
</g>
<defs>
<clipPath id="clip0_215_2">
<rect width="64" height="64" fill="white"/>
</clipPath>
</defs>
</svg>
